<svg xmlns="http://www.w3.org/2000/svg" viewBox="0 0 512 512" role="img" aria-labelledby="title desc">
  <title id="title">買い物管理</title>
  <desc id="desc">青いリキッド背景に買い物カートとチェックマークを配置したアプリアイコン</desc>
  <defs>
    <linearGradient id="bg" x1="88" y1="34" x2="432" y2="486" gradientUnits="userSpaceOnUse">
      <stop offset="0" stop-color="#7dd3fc"/>
      <stop offset="0.42" stop-color="#2563eb"/>
      <stop offset="1" stop-color="#0f172a"/>
    </linearGradient>
    <linearGradient id="cart" x1="140" y1="178" x2="372" y2="380" gradientUnits="userSpaceOnUse">
      <stop offset="0" stop-color="#f8fbff"/>
      <stop offset="0.58" stop-color="#dbeafe"/>
      <stop offset="1" stop-color="#93c5fd"/>
    </linearGradient>
    <linearGradient id="check" x1="205" y1="302" x2="330" y2="234" gradientUnits="userSpaceOnUse">
      <stop offset="0" stop-color="#67e8f9"/>
      <stop offset="1" stop-color="#ffffff"/>
    </linearGradient>
    <filter id="softShadow" x="-20%" y="-20%" width="140%" height="150%">
      <feDropShadow dx="0" dy="18" stdDeviation="18" flood-color="#020617" flood-opacity="0.32"/>
    </filter>
    <filter id="innerGlow" x="-20%" y="-20%" width="140%" height="140%">
      <feGaussianBlur stdDeviation="8" result="blur"/>
      <feColorMatrix in="blur" type="matrix" values="0 0 0 0 0.49 0 0 0 0 0.91 0 0 0 0 1 0 0 0 0.44 0"/>
      <feBlend in2="SourceGraphic" mode="screen"/>
    </filter>
  </defs>
  <rect width="512" height="512" rx="112" fill="url(#bg)"/>
  <path d="M73 327c44-38 85-21 129-47 63-38 37-112 101-144 53-26 108 7 140-30 30-35 7-78 7-78 49 42 72 107 57 176-23 108-113 176-222 196-94 17-171-13-212-73Z" fill="#38bdf8" opacity="0.38" filter="url(#innerGlow)"/>
  <path d="M34 188c64 22 101-23 152-37 55-15 91 7 128-28 22-21 32-53 32-86 48 18 89 50 118 91-34 7-60 29-85 52-46 43-86 28-145 60-70 39-105 103-200 58a220 220 0 0 1 0-110Z" fill="#a5f3fc" opacity="0.24"/>
  <path d="M91 94c30-31 70-54 116-67 0 0 15 53-22 79-34 24-72 2-94-12Z" fill="#e0f2fe" opacity="0.45"/>

  <g filter="url(#softShadow)">
    <path d="M126 163h43l31 168h148" fill="none" stroke="#e0f2fe" stroke-width="28" stroke-linecap="round" stroke-linejoin="round"/>
    <path d="M184 205h205l-31 100H205l-21-100Z" fill="url(#cart)"/>
    <path d="M184 205h205l-11 36c-36-20-76-17-111 2-39 21-65 14-80 3l-3-41Z" fill="#ffffff" opacity="0.35"/>
    <path d="M225 221v69M269 221v69M313 221v69M194 251h176" fill="none" stroke="#1d4ed8" stroke-width="12" stroke-linecap="round" opacity="0.42"/>
    <path d="m221 271 31 31 73-80" fill="none" stroke="url(#check)" stroke-width="30" stroke-linecap="round" stroke-linejoin="round"/>
    <path d="M202 331h157" stroke="#0ea5e9" stroke-width="20" stroke-linecap="round" opacity="0.5"/>
    <circle cx="215" cy="377" r="24" fill="#cffafe"/>
    <circle cx="346" cy="377" r="24" fill="#cffafe"/>
    <circle cx="215" cy="377" r="10" fill="#2563eb"/>
    <circle cx="346" cy="377" r="10" fill="#2563eb"/>
  </g>

  <circle cx="394" cy="126" r="13" fill="#e0f2fe" opacity="0.85"/>
  <circle cx="421" cy="159" r="8" fill="#bfdbfe" opacity="0.8"/>
</svg>
