<svg xmlns="http://www.w3.org/2000/svg" viewBox="0 0 512 512" role="img" aria-labelledby="title desc">
  <title id="title">買い物管理</title>
  <desc id="desc">ShoppingのSとAdvisorのAを組み合わせた青いリキッド調アプリアイコン</desc>
  <defs>
    <linearGradient id="bg" x1="82" y1="28" x2="432" y2="486" gradientUnits="userSpaceOnUse">
      <stop offset="0" stop-color="#7dd3fc"/>
      <stop offset="0.43" stop-color="#2563eb"/>
      <stop offset="1" stop-color="#0f172a"/>
    </linearGradient>
    <linearGradient id="letter" x1="146" y1="124" x2="368" y2="392" gradientUnits="userSpaceOnUse">
      <stop offset="0" stop-color="#ffffff"/>
      <stop offset="0.5" stop-color="#dbeafe"/>
      <stop offset="1" stop-color="#67e8f9"/>
    </linearGradient>
    <linearGradient id="accent" x1="170" y1="360" x2="346" y2="160" gradientUnits="userSpaceOnUse">
      <stop offset="0" stop-color="#67e8f9"/>
      <stop offset="1" stop-color="#ffffff"/>
    </linearGradient>
    <filter id="softShadow" x="-24%" y="-24%" width="148%" height="152%">
      <feDropShadow dx="0" dy="18" stdDeviation="18" flood-color="#020617" flood-opacity="0.34"/>
    </filter>
    <filter id="innerGlow" x="-20%" y="-20%" width="140%" height="140%">
      <feGaussianBlur stdDeviation="8" result="blur"/>
      <feColorMatrix in="blur" type="matrix" values="0 0 0 0 0.49 0 0 0 0 0.91 0 0 0 0 1 0 0 0 0.42 0"/>
      <feBlend in2="SourceGraphic" mode="screen"/>
    </filter>
  </defs>
  <rect width="512" height="512" rx="112" fill="url(#bg)"/>
  <path d="M72 329c45-39 86-22 130-48 63-38 37-112 101-144 53-26 108 7 140-30 30-35 7-78 7-78 49 42 72 107 57 176-23 108-113 176-222 196-94 17-171-13-213-72Z" fill="#38bdf8" opacity="0.38" filter="url(#innerGlow)"/>
  <path d="M34 188c64 22 101-23 152-37 55-15 91 7 128-28 22-21 32-53 32-86 48 18 89 50 118 91-34 7-60 29-85 52-46 43-86 28-145 60-70 39-105 103-200 58a220 220 0 0 1 0-110Z" fill="#a5f3fc" opacity="0.24"/>
  <path d="M91 94c30-31 70-54 116-67 0 0 15 53-22 79-34 24-72 2-94-12Z" fill="#e0f2fe" opacity="0.45"/>

  <g filter="url(#softShadow)">
    <path d="M328 139 409 380" fill="none" stroke="url(#letter)" stroke-width="50" stroke-linecap="round"/>
    <path d="M328 139 216 380" fill="none" stroke="url(#letter)" stroke-width="50" stroke-linecap="round"/>
    <path d="M250 294h112" fill="none" stroke="url(#accent)" stroke-width="34" stroke-linecap="round"/>
    <path d="M334 143c-54-24-133-12-161 35-34 57 24 90 84 101 65 12 101 38 77 79-25 43-107 49-165 16" fill="none" stroke="url(#letter)" stroke-width="48" stroke-linecap="round" stroke-linejoin="round"/>
    <path d="M334 143c-54-24-133-12-161 35-34 57 24 90 84 101 65 12 101 38 77 79-25 43-107 49-165 16" fill="none" stroke="#0f172a" stroke-width="18" stroke-linecap="round" stroke-linejoin="round" opacity="0.13"/>
    <path d="M334 143c-54-24-133-12-161 35" fill="none" stroke="#ffffff" stroke-width="12" stroke-linecap="round" opacity="0.72"/>
  </g>

  <circle cx="396" cy="126" r="13" fill="#e0f2fe" opacity="0.86"/>
  <circle cx="424" cy="160" r="8" fill="#bfdbfe" opacity="0.82"/>
  <path d="M373 86c17 8 28 20 35 36" fill="none" stroke="#e0f2fe" stroke-width="8" stroke-linecap="round" opacity="0.6"/>
</svg>
